<?xml version="1.0" encoding="utf-8"?>
<!-- Generator: Adobe Illustrator 23.0.1, SVG Export Plug-In . SVG Version: 6.00 Build 0)  -->
<svg version="1.1" id="Layer_1" xmlns="http://www.w3.org/2000/svg" xmlns:xlink="http://www.w3.org/1999/xlink" x="0px" y="0px"
	 viewBox="0 0 143.22 143.5" style="enable-background:new 0 0 143.22 143.5;" xml:space="preserve">
<style type="text/css">
	.st0{fill:none;stroke:#333333;stroke-width:3;stroke-miterlimit:10;}
	.st1{fill:#FFFFFF;stroke:#333333;stroke-width:3;stroke-miterlimit:10;}
</style>
<g>
	<g>
		<path class="st0" d="M71.89,96.12c20.48,0,38.91,8.78,51.72,22.79c11.25-12.44,18.1-28.92,18.1-47.01
			c0-18.23-6.96-34.83-18.36-47.3c-12.81,13.84-31.12,22.5-51.46,22.5c-20.49,0-38.93-8.79-51.75-22.81
			C8.58,36.79,1.5,53.51,1.5,71.89c0,18.24,6.97,34.85,18.38,47.32C32.71,105.03,51.26,96.12,71.89,96.12z"/>
		<path class="st0" d="M71.61,142c20.63,0,39.18-8.91,52.01-23.1c-12.82-14-31.24-22.79-51.72-22.79c-20.63,0-39.18,8.91-52.01,23.1
			C32.7,133.22,51.13,142,71.61,142z"/>
		<path class="st0" d="M71.89,47.1c20.34,0,38.66-8.67,51.46-22.5C110.54,10.58,92.1,1.78,71.61,1.78
			c-20.34,0-38.66,8.67-51.46,22.5C32.96,38.31,51.4,47.1,71.89,47.1z"/>
	</g>
	<ellipse class="st0" cx="71.89" cy="71.61" rx="39.33" ry="70.11"/>
	<line class="st0" x1="71.89" y1="141.72" x2="71.89" y2="1.5"/>
	<line class="st0" x1="142" y1="71.61" x2="1.78" y2="71.61"/>
</g>
</svg>
